<?xml version="1.0" standalone="no"?>
<!DOCTYPE svg PUBLIC "-//W3C//DTD SVG 20010904//EN"
 "http://www.w3.org/TR/2001/REC-SVG-20010904/DTD/svg10.dtd">
<svg version="1.0" xmlns="http://www.w3.org/2000/svg"
 width="700.000000pt" height="700.000000pt" viewBox="0 0 700.000000 700.000000"
 preserveAspectRatio="xMidYMid meet">
<metadata>
Created by potrace 1.11, written by Peter Selinger 2001-2013
</metadata>
<g transform="translate(0.000000,700.000000) scale(0.100000,-0.100000)"
fill="#000000" stroke="none">
<path d="M2640 6584 c-10 -3 -23 -41 -39 -117 -30 -143 -53 -212 -102 -312
-52 -106 -86 -142 -199 -210 -52 -32 -121 -73 -152 -92 -67 -41 -219 -190
-254 -249 -36 -60 -50 -119 -53 -219 -5 -167 -27 -260 -91 -382 -48 -92 -45
-119 23 -233 93 -153 164 -199 401 -257 78 -19 152 -41 164 -49 13 -9 30 -32
39 -51 20 -48 19 -195 -1 -250 -11 -32 -14 -64 -9 -127 l6 -85 -29 -8 c-36
-10 -255 -9 -389 2 -94 7 -145 8 -151 2 -1 -1 4 -16 11 -33 l13 -31 247 -1
c246 -1 283 -5 297 -26 10 -15 10 -68 -1 -85 -13 -20 -73 -28 -198 -25 -145 2
-159 6 -181 51 -9 20 -22 38 -28 40 -5 2 -18 -21 -28 -52 -9 -30 -29 -66 -44
-79 -15 -14 -48 -44 -74 -66 -46 -41 -67 -86 -60 -130 19 -113 128 -139 237
-56 28 21 34 23 61 11 36 -15 114 -101 114 -126 0 -25 72 -83 121 -98 39 -12
40 -13 24 -31 -31 -34 -78 -42 -202 -35 -64 4 -124 8 -133 10 -10 2 -42 5 -71
6 -52 3 -54 2 -53 -22 4 -89 53 -253 77 -257 9 -2 25 11 39 32 19 30 29 36 60
36 20 0 40 -5 43 -10 17 -28 -108 -192 -219 -285 -32 -28 -67 -59 -78 -70 -19
-20 -19 -20 16 -23 48 -4 235 51 321 96 38 20 103 58 144 85 44 30 86 50 104
51 l31 1 3 -60 c6 -166 13 -219 28 -234 20 -20 156 -22 203 -2 47 20 47 17 42
348 -1 85 3 150 9 162 10 18 27 25 96 37 17 2 70 12 120 21 100 18 87 23 138
-56 12 -19 34 -43 49 -54 24 -18 32 -19 67 -8 124 37 104 194 -34 261 -63 31
-181 60 -243 60 l-36 0 53 -54 c51 -52 53 -54 32 -65 -17 -10 -211 -10 -423 0
-39 1 -24 18 40 44 37 16 96 44 132 63 234 125 287 150 311 145 31 -6 76 -47
239 -223 69 -73 148 -157 175 -186 70 -72 176 -184 345 -363 192 -204 189
-201 311 -329 59 -61 116 -124 128 -140 l21 -30 -25 -4 c-14 -3 -43 -4 -65 -3
l-41 3 2 -192 c3 -275 9 -247 -56 -245 -66 3 -81 -8 -59 -40 13 -18 24 -22 55
-20 21 2 44 -2 50 -8 12 -12 15 -98 9 -335 -2 -75 -6 -142 -10 -149 -4 -6 -29
-13 -56 -16 -27 -2 -51 -9 -55 -15 -12 -19 5 -106 43 -227 l21 -65 31 36 c17
20 67 58 111 84 163 97 339 243 303 251 -9 2 -41 -2 -71 -10 -30 -8 -60 -11
-67 -7 -20 13 -26 76 -24 262 1 198 4 208 63 208 82 0 80 3 76 -137 l-3 -125
31 -35 31 -35 2 -203 c2 -239 6 -271 37 -278 51 -13 135 0 182 28 45 26 55 28
165 28 84 0 128 -4 161 -16 38 -15 87 -23 152 -26 15 -1 16 -4 7 -22 -24 -44
-54 -48 -410 -44 -184 2 -368 7 -408 9 -72 6 -73 5 -66 -17 4 -12 12 -25 18
-30 17 -11 1079 -2 1100 10 15 8 6 18 -59 72 -42 35 -83 73 -91 86 -16 25 -16
85 1 85 6 0 31 -21 55 -47 187 -205 508 -533 523 -534 72 -7 244 96 363 219
83 84 178 211 253 336 275 463 357 864 296 1448 -14 134 -99 467 -195 763 -61
189 -116 379 -135 470 -54 263 33 384 293 410 114 11 204 52 239 110 24 41 28
171 6 223 -40 97 -167 244 -287 331 -71 53 -205 116 -266 127 -77 13 -202 11
-255 -4 -133 -38 -251 -177 -320 -378 -26 -74 -28 -92 -31 -274 -3 -209 1
-248 43 -380 15 -47 28 -94 30 -104 2 -11 8 -24 13 -31 5 -6 11 -22 13 -36 3
-14 27 -74 55 -135 27 -60 61 -137 76 -171 14 -34 50 -110 79 -170 29 -59 70
-148 91 -198 21 -49 49 -113 62 -142 46 -102 127 -355 140 -437 3 -21 8 -48
11 -60 12 -46 11 -443 -2 -531 -18 -127 -54 -304 -71 -344 -8 -18 -16 -44 -18
-57 -9 -45 -98 -244 -149 -329 -28 -48 -69 -103 -89 -123 -79 -76 -198 -118
-213 -74 -3 11 1 50 9 89 19 87 63 351 70 418 18 161 26 622 13 740 -18 158
-86 394 -153 527 -92 184 -207 332 -429 553 -147 146 -347 336 -419 398 -121
105 -193 173 -392 372 -318 316 -598 647 -697 822 -45 79 -69 150 -101 299
-28 127 -29 133 -46 204 -26 107 -139 299 -239 403 -46 49 -247 211 -329 266
-71 48 -87 69 -96 127 -10 71 -73 206 -127 274 -105 132 -244 216 -319 194z
m48 -2811 c6 -19 -28 -29 -39 -12 -5 8 -9 18 -9 22 0 13 43 3 48 -10z m-429
-82 l34 -1 -5 -49 c-3 -26 -14 -68 -26 -93 l-22 -44 -87 9 c-58 5 -92 14 -100
23 -10 13 -16 140 -7 155 2 4 75 4 213 0z m557 -56 c61 -66 78 -92 67 -98 -5
-3 -39 4 -78 15 -115 32 -108 32 -133 -5 -26 -40 -217 -234 -244 -248 -15 -8
-18 -6 -19 18 -1 15 -1 31 0 35 0 4 -8 30 -18 57 -16 38 -17 52 -8 64 15 19
186 107 208 107 9 0 24 8 33 19 16 18 15 19 -22 34 -21 8 -55 18 -75 22 -24 5
-34 11 -30 21 5 14 63 19 196 19 l68 -1 55 -59z m-420 -637 c10 -7 10 -95 0
-105 -2 -2 -12 -4 -22 -4 -22 0 -241 65 -250 73 -25 26 235 59 272 36z m1961
-991 c42 -37 72 -91 79 -144 3 -29 4 -59 0 -68 -5 -15 -9 -14 -32 4 -35 27
-48 26 -63 -5 -15 -33 -47 -29 -44 6 1 14 2 70 4 125 1 55 4 103 6 108 5 8 17
2 50 -26z m323 -347 c5 -10 13 -47 16 -82 3 -35 10 -68 15 -74 6 -7 33 -11 67
-9 57 3 82 -6 82 -30 0 -11 -58 -13 -187 -6 -22 1 -23 4 -23 104 0 116 7 139
30 97z m286 -296 c39 -45 40 -51 15 -59 -18 -6 -205 1 -251 10 -147 27 -172
73 -44 82 38 3 70 6 71 7 1 0 40 0 88 0 l87 -2 34 -38z m75 -132 c0 -9 2 -24
4 -33 5 -27 -10 -41 -54 -49 -46 -8 -236 -8 -245 1 -8 7 -14 71 -9 85 2 6 35
12 76 13 39 1 72 3 73 4 1 1 36 1 78 -1 63 -3 76 -7 77 -20z m-21 -152 c23
-23 26 -68 7 -94 -11 -15 -30 -17 -147 -17 -73 1 -136 5 -139 10 -5 8 -6 40
-2 86 2 25 40 34 154 34 94 1 109 -1 127 -19z"/>
<path d="M1194 4098 c-16 -12 -45 -37 -64 -55 -40 -37 2 -34 -416 -35 l-251
-1 -84 31 c-159 57 -180 63 -189 51 -5 -7 -5 -133 0 -642 2 -191 4 -209 21
-215 16 -6 40 -7 157 -3 23 1 41 11 67 38 l36 38 311 1 c209 0 314 -3 319 -10
5 -6 19 -24 31 -40 21 -28 23 -28 103 -24 62 3 90 9 118 27 l37 23 0 302 c0
281 1 304 19 322 10 11 24 31 31 44 12 22 10 27 -26 58 -41 36 -138 95 -171
106 -13 4 -30 -2 -49 -16z m-584 -147 l36 -1 2 -120 c3 -93 0 -120 -10 -121
-59 -3 -166 -4 -176 -1 -19 6 -14 230 5 241 7 4 35 6 61 5 26 -1 63 -2 82 -3z
m487 -5 c11 -4 23 -17 25 -29 8 -41 -1 -190 -11 -200 -11 -11 -173 -18 -199
-9 -18 6 -13 219 5 238 14 13 138 13 180 0z m-452 -441 c0 -73 -3 -136 -6
-139 -2 -3 -40 -6 -83 -8 -103 -3 -105 0 -104 147 0 63 4 118 7 123 8 13 59
18 131 14 l55 -4 0 -133z m474 18 c-2 -165 0 -162 -95 -164 -70 -2 -87 0 -102
10 -15 9 -27 193 -16 243 6 31 21 35 137 30 l78 -4 -2 -115z"/>
<path d="M648 3252 c-26 -5 -22 -18 12 -42 36 -26 65 -76 49 -85 -6 -4 -29 -4
-52 -1 -23 4 -58 8 -77 11 -19 2 -63 8 -98 13 -54 8 -64 7 -72 -8 -11 -20 -10
-337 2 -420 11 -83 35 -115 101 -134 138 -40 435 -40 577 0 60 17 110 55 136
105 20 39 11 63 -41 120 -63 68 -72 90 -74 202 -2 50 -17 28 -44 -61 -42 -140
-72 -159 -253 -157 -151 2 -164 15 -161 163 2 67 4 76 30 98 15 13 32 24 37
24 5 0 27 -24 49 -54 50 -68 90 -84 148 -61 72 29 98 118 54 189 -25 39 -102
82 -166 91 -54 8 -136 12 -157 7z"/>
<path d="M1190 3185 c0 -2 13 -33 29 -67 38 -84 40 -92 46 -173 7 -99 24 -152
57 -186 25 -25 37 -29 84 -29 48 0 59 4 92 34 37 34 37 35 36 110 0 65 -4 81
-30 123 -35 56 -102 110 -200 158 -62 31 -114 45 -114 30z"/>
<path d="M250 3134 c-34 -83 -45 -97 -123 -157 -98 -74 -121 -107 -120 -167 2
-153 199 -178 272 -35 23 44 26 62 28 175 2 120 -8 205 -27 224 -6 6 -17 -10
-30 -40z"/>
<path d="M2768 2952 c-27 -5 -22 -14 39 -67 32 -28 80 -75 108 -105 160 -174
186 -191 245 -162 102 49 78 196 -43 266 -59 34 -293 80 -349 68z"/>
<path d="M2981 2171 c-9 -6 -12 -24 -8 -65 5 -61 -8 -80 -51 -71 -11 2 -42 7
-69 11 -57 8 -94 25 -148 69 -76 61 -76 61 -132 1 -45 -48 -54 -53 -84 -50
-80 8 -170 7 -179 -2 -7 -7 -5 -17 4 -29 13 -18 27 -19 167 -19 85 1 194 3
243 5 74 3 90 1 100 -13 14 -18 74 -35 119 -34 28 2 31 -4 29 -53 -2 -30 -4
-32 -33 -33 -50 0 -69 -8 -69 -28 0 -24 11 -31 57 -35 44 -4 51 -15 47 -68 -7
-79 -8 -80 -80 -74 -73 5 -151 40 -202 87 -41 39 -57 35 -117 -32 l-45 -50
-73 6 c-39 3 -93 9 -119 12 -43 6 -48 4 -48 -12 1 -47 4 -47 262 -50 216 -2
381 -8 518 -19 25 -2 50 -4 57 -4 10 -1 12 -55 4 -103 -2 -17 -66 -7 -166 26
l-105 34 3 -228 c2 -248 -1 -263 -51 -254 -14 3 -32 10 -39 16 -23 19 -15 68
17 108 l31 39 -46 38 c-25 21 -63 45 -84 55 l-39 16 -63 -39 c-35 -21 -74 -39
-87 -39 -13 0 -54 13 -91 29 -37 16 -81 32 -97 35 l-29 7 2 -68 c1 -38 4 -181
6 -319 2 -138 7 -256 10 -261 3 -5 36 -8 73 -8 57 1 69 5 85 24 11 13 19 31
19 41 0 35 12 50 40 50 37 0 46 -13 49 -66 l1 -27 77 6 c58 4 80 10 90 23 14
19 15 25 17 159 0 50 5 96 9 102 9 14 55 17 74 5 7 -4 12 -57 15 -154 1 -80 6
-149 10 -153 9 -9 95 -14 136 -7 18 2 37 12 42 21 4 9 11 77 15 151 4 74 9
137 10 139 2 1 76 4 165 5 145 1 163 -1 175 -17 14 -19 10 -50 -9 -66 -7 -6
-41 -12 -76 -14 -35 -2 -65 -8 -67 -13 -2 -5 13 -20 33 -33 40 -28 58 -57 74
-124 7 -25 19 -48 27 -52 25 -9 131 16 166 39 52 35 65 76 66 212 l1 71 57 2
c81 3 85 15 43 121 -30 78 -36 81 -70 40 l-29 -35 -2 55 c-2 141 2 174 27 212
13 21 24 39 24 41 0 21 -140 127 -168 127 -8 0 -33 -15 -56 -33 -85 -70 -110
-70 -114 -3 -2 27 1 53 6 58 6 6 88 12 183 14 251 5 253 6 162 91 -80 75 -87
76 -144 12 -47 -52 -49 -53 -64 -35 -20 26 -23 100 -5 119 4 5 48 11 96 13 98
5 114 8 114 24 0 15 -89 100 -104 100 -7 0 -28 -13 -46 -30 -18 -16 -41 -30
-51 -30 -20 0 -29 37 -18 68 8 21 15 22 122 22 123 0 144 8 125 44 -16 30 -90
96 -107 96 -8 0 -33 -21 -55 -46 -30 -33 -46 -44 -58 -39 -22 9 -23 38 -2 70
20 31 13 41 -33 48 -21 4 -54 9 -73 12 -19 3 -46 7 -60 9 -47 7 -56 -4 -55
-68 0 -69 -16 -87 -62 -70 -35 12 -40 37 -13 64 31 31 13 45 -78 59 -42 7 -86
14 -97 16 -11 2 -26 0 -34 -4z m283 -208 c2 -10 4 -31 3 -48 -2 -25 -7 -31
-31 -33 -55 -7 -76 5 -76 41 0 43 15 57 61 57 27 0 39 -5 43 -17z m-7 -145 c2
-5 7 -38 9 -73 l4 -65 -50 0 -50 0 0 75 0 76 41 -3 c22 -1 43 -6 46 -10z
m-123 -390 c3 -13 6 -39 6 -59 0 -28 -5 -38 -23 -46 -32 -15 -47 -4 -54 40 -9
59 3 87 36 87 21 0 30 -6 35 -22z m271 13 c3 -6 8 -28 11 -50 9 -64 -35 -95
-83 -58 -13 10 -18 99 -6 110 10 10 71 8 78 -2z m-280 -177 c12 -13 15 -33 13
-98 l-3 -81 -32 -1 c-39 0 -44 10 -44 95 -1 89 26 124 66 85z m287 -19 c3 -12
4 -54 3 -91 l-1 -69 -46 -1 -45 -1 -1 84 c0 71 3 85 19 97 28 19 66 9 71 -19z
m-850 -32 c2 -10 4 -90 4 -178 l-1 -160 -35 3 c-19 2 -37 6 -40 9 -2 2 -5 76
-7 164 -2 147 0 162 18 180 22 22 53 13 61 -18z"/>
<path d="M2601 1936 l-55 -45 -147 2 c-81 1 -151 -1 -155 -5 -4 -5 1 -17 11
-28 17 -19 27 -20 129 -15 61 3 187 7 280 10 92 2 170 5 172 7 9 9 -85 88
-104 88 -6 0 -12 4 -14 10 -1 5 -16 12 -33 15 -25 5 -39 -1 -84 -39z"/>
<path d="M2586 1540 l-53 -50 -116 4 c-63 2 -120 0 -127 -4 -7 -5 -5 -14 8
-30 18 -23 22 -23 193 -22 177 2 299 8 307 17 9 9 -122 135 -140 135 -11 0
-43 -23 -72 -50z"/>
</g>
</svg>
