<?xml version="1.0" standalone="no"?>
<!DOCTYPE svg PUBLIC "-//W3C//DTD SVG 20010904//EN"
 "http://www.w3.org/TR/2001/REC-SVG-20010904/DTD/svg10.dtd">
<svg version="1.0" xmlns="http://www.w3.org/2000/svg"
 width="700.000000pt" height="700.000000pt" viewBox="0 0 700.000000 700.000000"
 preserveAspectRatio="xMidYMid meet">
<metadata>
Created by potrace 1.11, written by Peter Selinger 2001-2013
</metadata>
<g transform="translate(0.000000,700.000000) scale(0.100000,-0.100000)"
fill="#000000" stroke="none">
<path d="M1352 6695 c-217 -39 -401 -212 -456 -427 -13 -49 -15 -433 -16
-2770 -2 -2470 0 -2718 14 -2772 45 -162 158 -297 311 -371 54 -27 116 -48
155 -54 43 -7 753 -11 2135 -11 1743 1 2083 3 2150 15 117 21 214 72 301 159
131 132 174 248 173 465 l0 126 -18 -55 c-61 -189 -187 -316 -391 -394 l-55
-21 -2015 -3 c-1324 -2 -2041 1 -2092 7 -148 20 -277 114 -341 248 -30 64 -32
74 -32 178 1 97 4 118 29 178 47 111 135 196 256 244 43 17 160 18 2120 23
l2075 5 66 23 c86 29 204 106 257 168 53 62 105 160 129 244 17 62 18 154 16
2180 -2 1485 -6 2131 -14 2170 -39 195 -199 366 -409 437 -53 17 -143 18
-2165 20 -1719 1 -2124 -1 -2183 -12z"/>
</g>
</svg>
