<?xml version="1.0" standalone="no"?>
<!DOCTYPE svg PUBLIC "-//W3C//DTD SVG 20010904//EN"
 "http://www.w3.org/TR/2001/REC-SVG-20010904/DTD/svg10.dtd">
<svg version="1.0" xmlns="http://www.w3.org/2000/svg"
 width="700.000000pt" height="700.000000pt" viewBox="0 0 700.000000 700.000000"
 preserveAspectRatio="xMidYMid meet">
<metadata>
Created by potrace 1.11, written by Peter Selinger 2001-2013
</metadata>
<g transform="translate(0.000000,700.000000) scale(0.100000,-0.100000)"
fill="#000000" stroke="none">
<path d="M1325 6691 c-93 -23 -148 -49 -221 -104 -101 -77 -174 -187 -210
-318 -17 -60 -18 -214 -18 -2779 l-1 -2715 27 -81 c66 -192 218 -334 413 -384
77 -20 112 -20 2174 -20 2330 0 2167 -5 2317 69 130 65 237 186 288 330 17 46
21 86 23 221 3 162 2 164 -12 110 -56 -204 -228 -371 -435 -421 -45 -12 -413
-14 -2095 -14 -2285 1 -2089 -6 -2212 74 -184 119 -242 352 -141 568 27 59
118 151 178 180 115 56 -10 53 2195 53 2236 0 2074 -5 2212 62 96 47 206 158
256 259 72 147 68 -14 65 2332 l-3 2112 -28 80 c-53 148 -161 276 -289 341
-27 14 -84 34 -126 45 -73 18 -130 19 -2181 18 -1968 0 -2111 -2 -2176 -18z"/>
</g>
</svg>
